<svg id="Layer_1" data-name="Layer 1" xmlns="http://www.w3.org/2000/svg" viewBox="0 0 195.15 167"><path d="M25.8,123.36a25.86,25.86,0,0,1,4,2.4,13.48,13.48,0,0,0,5.37,2.9c2.12.6,4.29,1,6.44,1.52a.65.65,0,0,0,.66-.25c-1.27-.38-2.53-.76-3.81-1.12-3.21-.91-6.35-2-9-4.15A20,20,0,0,0,26,122.77c.67-5.69,3-11.3,1.52-17.32-.17.24-.35.49-.52.75a14.59,14.59,0,0,1-6.38,5.61,2.73,2.73,0,0,1-2.76-.2A9.7,9.7,0,0,1,13.28,104a37.42,37.42,0,0,1,.55-9,2.06,2.06,0,0,0-.34-1.34A2.81,2.81,0,0,1,13,91.16c1.14-4.62,2.18-9.27,3.24-13.91a18.05,18.05,0,0,0-.33-8.08,5.15,5.15,0,0,1,2.26-5.92c.34-.25.64-.56,1-.88L16.88,55.5a.48.48,0,0,0-.19-.25c-1.4-.89-1.57-1.37-1.25-2.85a1.85,1.85,0,0,0-.28-1.34c-1.12-1.49-2.88-1.67-4.53-2.16-.84,1.19-.86,2.91-2.54,3.57l.76-3.74c-.73,0-1.19,0-1.64,0a2.14,2.14,0,0,1-2.27-2.48,1.35,1.35,0,0,1,.81-.81c4.84-1.59,9.7-3.14,14.69-4.73a19.75,19.75,0,0,0,5.85,7.41l-.24.32a21.61,21.61,0,0,1-2.38-1.27,1.43,1.43,0,0,0-2.22.33,21.62,21.62,0,0,0-1.52,3.09.87.87,0,0,0,0,.57c.8,2.47,1.6,5,2.42,7.41.18.56.41,1.09.61,1.64.68,1.84,1.59,2.27,3.43,1.61a1.34,1.34,0,0,1,1.89,1.45,3.41,3.41,0,0,1-.67,1.83c-.69.74-.47,1.33-.22,2.15.46,1.56,1.2,3.28.94,4.78-.33,1.93.57,3.31,1,5.2,1.17-3,2.24-5.79,3.44-8.87L29.2,70.57,29,70.41c.25-.31.44-.72.76-.9,1-.55,2-1,3-1.52l7.94-3.86a1.45,1.45,0,0,0,.83-1.62c-.12-1.15-.18-2.31-.27-3.57-2.4.06-3.47-1.48-4.32-3.35-1-2.16-2.14-4.23-2.92-6.45a8.5,8.5,0,0,1-.22-3.86c.29-2.11-.68-4-1-5.92,0-.18-.48-.28-.73-.42a34.92,34.92,0,0,1-3.2-2c-.76-.59-.89-1.5-.35-2.68-.16,1.45.64,1.38,1.43,1.32h.12a3.82,3.82,0,0,0,3.81-2.48,72.09,72.09,0,0,1,4.5-7.59A2.72,2.72,0,0,1,41,24.2c1.27,0,2.55.12,3.82.05a16.76,16.76,0,0,1,6.27,1,23,23,0,0,0,4.29.89,2,2,0,0,1,1.92,1.71c.75,4.24,1.78,8.48,1.17,12.8a3.43,3.43,0,0,0,1.65,3.73c3,2.22,3.91,5.44,3.73,9.05,0,.22,0,.44,0,.58,3-1.17,6-2.3,9-3.5C76.39,49,80,47.51,83.6,46a4.81,4.81,0,0,1,1.52-.55c1.5-.07,2-1.14,2.23-2.27a27.84,27.84,0,0,0,.54-9.37,12.81,12.81,0,0,1-.09-1.39A1,1,0,0,0,87,31.3a2.66,2.66,0,0,1-1.39-1.41,13.54,13.54,0,0,1-1-7.41c.05-.45.46-.85.78-1.39-.11-.28-.29-.7-.46-1.12a1.26,1.26,0,0,1,.28-1.41,9.59,9.59,0,0,0,1.24-2.83c.74-2.32,1.36-4.68,2.12-7a3.9,3.9,0,0,1,2.7-2.67c2.49-.75,4.94-1.6,7.44-2.27a5,5,0,0,1,2.5,0,28.82,28.82,0,0,1,8.22,3.74,4.29,4.29,0,0,1,1.89,2.81c1,4.06,1.68,8.14,1,12.33,0,.11,0,.22,0,.42,1.3-.16,1.46.75,1.43,1.67a16.11,16.11,0,0,1-2.11,7.06c-.28.52-1,.79-1.54,1.15a24.77,24.77,0,0,0-1.61,4.57,34.93,34.93,0,0,0-.08,5.79,3.68,3.68,0,0,0,.3,1.7,5.06,5.06,0,0,0,1.34,1.43,7.72,7.72,0,0,0,1.35.67c3.1,1.58,6.16,3.25,9.3,4.74,1.72.81,3.59,1.32,5.42,2l-.78-.73c3.94-1.06,5.4-3.42,4.16-7.38-.75.62-1.43,1.09-2,.06-.81-1.33-.72-2.94.31-3.57a5.26,5.26,0,0,1,1.82-.53c-2.33,1.39-2.63,2.34-1,4.09a8.08,8.08,0,0,0,.58-1.32c.57-2.53,2.65-5,6.15-4.11,0-.37,0-.7-.1-1a16.54,16.54,0,0,1,3-12.24,2.74,2.74,0,0,1,.86-.76,19.12,19.12,0,0,1,14.12-2.22,10.81,10.81,0,0,1,4.69,2.7,2.89,2.89,0,0,0,1.59.74,5.64,5.64,0,0,1,5,3.63,5.44,5.44,0,0,1-.71,6.21c-1.55,1.77-1.75,3.74-1.45,6a9.06,9.06,0,0,1-.41,4.3c-1,2.6-2.32,5.07-3.57,7.57-.57,1.14-1.67,1.51-3.29,1.26a9,9,0,0,0-.28,5.76c.13.48.83.88,1.36,1.14,2,.93,4,1.71,5.91,2.71a9.23,9.23,0,0,1,2.67,2.11,36.26,36.26,0,0,1,3.64,4.82c2.06,3.43,4,7,6,10.54.31-1.1.8-2,.27-3.29a7.41,7.41,0,0,1,.19-5.8,2,2,0,0,0-.07-2.09,2.28,2.28,0,0,1-.45-1.52,2.71,2.71,0,0,1,.95-1.76c.44-.27,1.27,0,1.88.2a5.87,5.87,0,0,1,1.31.91c.54-2.08,1.14-4.37,1.75-6.74-.63-.29-1.28-.53-1.87-.87a5.8,5.8,0,0,1-1.35-1.06c-.18-.19-.13-.59-.18-.9a2.93,2.93,0,0,1,.85.07c.9.38,1.79.81,2.81,1.28.56-1.78,1.12-3.31,1.48-4.88.08-.34-.53-.83-.77-1.17l1,.34c.38-1.28.79-2.51,1.09-3.77a2.14,2.14,0,0,1,2.61-1.81c1.4.25,2.23,1.24,1.84,2.56-.85,2.9-1.85,5.75-2.8,8.62-.11.33-.3.63-.54.62.06.3.26.63.18.88-.71,2.29-1.47,4.56-2.25,7a3.17,3.17,0,0,1,1,.29c.58.41,1.32.79,1.61,1.37a19.43,19.43,0,0,1,1.45,4c.57,2.35.94,4.74.09,7.11a9.7,9.7,0,0,0-.18,4.48c.56,5.24,1.11,10.48,1.53,15.73a12,12,0,0,1-.58,3.41,1.76,1.76,0,0,1-.52,1c-1.75,1.26-3.49,2.55-5.35,3.63a3.12,3.12,0,0,1-2.23,0c-1.43-.47-2.79-1.14-4.27-1.77,0,.28-.06.56-.08.84-.49,6.85.89,13.51,2,20.21,1.79,10.87,3.5,21.76,5.24,32.64.07.46.17.91.23,1.37.26,2.21.26,2.21-1.85,3a89.63,89.63,0,0,1-18.32,4.7c-2.91.45-5.82.92-8.74,1.35-.64.1-1.29.09-2.09.14.32-1.38.6-2.61.9-3.91l1.16-.08L172.13,104l-3.89,1.29Q159,137,149.78,168.88l1.36.8c-.32,1-.61,2-.91,3-.53,1.67-.53,1.67-2.33,1.68-2.9-10.05-5.79-20.09-8.71-30.23l-1.27.34c2.83,10,5.64,20,8.49,30.07l-1.46.13-8.69-31.16c-1.34.68-1.79-.08-2.31-.79s-1.32-1.69-2-2.51c-1-1.15-.82-2.43-.47-3.74s.64-2.34,1-3.66a3.26,3.26,0,0,1-3.39-2.62,19.31,19.31,0,0,1-.08-4.47l-2.58.78c4.65,16.22,9.26,32.27,13.92,48.48l-2.65.23c-1.81-7.26-3.57-14.41-5.38-21.54Q129.19,141.4,126,129.2c-2-7.46-4.06-14.89-6-22.34-.25-.93-.93-2,.14-2.91.1-.09,0-.44,0-.65a14.44,14.44,0,0,0-6.54-9.51c-.42-.27-.59-.94-.91-1.48l-.22,1a11.56,11.56,0,0,0-12.22,2.08C98.31,97,96,100.62,96,102.29c.39-.56.69-.93.94-1.33a17.28,17.28,0,0,1,5.87-6.32,10.11,10.11,0,0,1,11.71,1.1,13.14,13.14,0,0,1,4.19,6.85c.06.3.22.68.11.91-1,1.94,0,3.72.41,5.52,2.61,10,5.33,20,7.89,30,2.8,11,5.47,22,8.2,33,.26,1,.53,2.08.83,3.27-.73.08-1.33.19-1.94.21-9.11.27-18.22.5-27.34.81a1.6,1.6,0,0,1-1.81-1.28c-1.57-4.09-3.2-8.16-4.81-12.23a1.56,1.56,0,0,0-.6-.75c-1.16,4.7-2.31,9.4-3.45,14H79.25c.71-3.28,1.38-6.37,2.07-9.46,1.75-7.92,3.56-15.82,5.27-23.74,1.77-8.27,3.46-16.55,5.16-24.83.1-.48.61-1.28-.66-1.32q-6.82,29.49-13.67,59H71.11c.42-1.91.81-3.7,1.21-5.51l2.21.57.06-.21-2.14-.74.27-1.35,2.25.68.08-.21-2.15-1,.6-2.5L76,166l.09-.29-2.46-.78q3.54-16.2,7.1-32.46l3.06.49,0-.19-2.92-.81.16-1.08,1-.05v-.14l-.9-.26.52-2.84,1.22.06,0-.25-1.1-.35.24-1.15,1.22.17.08-.23-1.15-.48.57-2.4,1.27.2.07-.26L83,122.49c.09-.61.09-.61,1.88-.92l-1.57-.41c-.22-1.36.94-.57,1.54-.9l-1.26-.51c-.09-1.2.71-.77,1.29-.69a5.78,5.78,0,0,0,1.91.11l-3-.74.12-1.54-.42-.08Q77,146.17,70.39,175.6c-1.84-.09-3.5-.14-5.15-.29-.28,0-.62-.51-.75-.86q-2.86-7.62-5.66-15.27-7.19-19.55-14.34-39.09a1.94,1.94,0,0,0-1.7-1.48c-.82-.12-1.63-.37-2.6-.6,7,19,13.9,37.85,20.9,56.93l-4-.32c-.09-2.43,1-4.66.49-7l-.31,0c-.4,2.29-.81,4.57-1.23,7-1.72-.16-3.45-.3-5.18-.48a166.34,166.34,0,0,1-24.28-4.19c-2.43-.63-4.79-1.54-7.16-2.41-1.67-.61-1.73-.76-1.41-2.5.8-4.43,1.63-8.85,2.45-13.27Q23,138.57,25.4,125.41ZM53.31,50a2.83,2.83,0,0,1-.09.89,54.94,54.94,0,0,1-3.46,6.42c-1.71,2.43-3.77,4.62-7.38,4.1.42,1.85-.45,3.07-1.45,4.32a5.37,5.37,0,0,0-1,2.21c-.38,1.62.59,2.64,2.26,2.48a4.57,4.57,0,0,0,1.46-.34,54.08,54.08,0,0,0,4.93-2.32,25.94,25.94,0,0,0,6.93-6.29c-.46-1-.89-1.87-1.24-2.77-1-2.61-.82-5.33-.68-8.05,0-.2-.24-.41-.36-.62l.21-1A2,2,0,0,0,56,48,26.68,26.68,0,0,0,57.7,43.9a1.57,1.57,0,0,0-.94-2.12c-1-.33-1.28.62-1.7,1.23s-.68,1.14-1.12,1.89l-7-10.35a4.25,4.25,0,0,0-1,.36,10.39,10.39,0,0,1-5.23,1.33,23.37,23.37,0,0,0-4.47.7c-1.52.37-2.07,1.47-1.85,3.12a4.93,4.93,0,0,1,3.87.49c.26.24.33.71.58,1.29-1.16-.41-2-.76-2.85-1-.51-.12-1.4-.22-1.54,0A1.66,1.66,0,0,0,34.74,43c.15-.21.24-.37.36-.51.9-1.06,1.95-.9,3.83.59.12.1.16.29.32.59l-.93-.45.1.34c-.48.24-1,.72-1.44.65s-.74-.71-1.18-1.17c-.29.24-1,.55-1.1,1a8.43,8.43,0,0,0,.5,5.9c1,2,2,4,3,6a3.59,3.59,0,0,0,2.59,2,7,7,0,0,0,4.22-.32C48.81,56.14,51.84,53.9,53.31,50ZM95.53,22.05l0,0c-.33-.35-.6-.9-1-1a4.26,4.26,0,0,0-4.11.38l-.26-.18.49-1.53-1.78-.17a11.51,11.51,0,0,0-.42,1.32c-.25,1.21-.44,2.44-.67,3.65-.27,1.39-1.37,2.82.31,4.06.07,0,0,.23.06.43a8.71,8.71,0,0,0-1.11-1,1.89,1.89,0,0,1-.85-2.66c.58-1.08,0-1.35-.89-1.66A10.26,10.26,0,0,0,85.11,26a31.8,31.8,0,0,0,.78,3.13c.37,1.59.74,1.88,2.33,1.75.22,1.14.42,2.29.66,3.42a7.42,7.42,0,0,0,3.29,4.35A11.5,11.5,0,0,1,94,40.12a4,4,0,0,0,4.14,1.47,2.83,2.83,0,0,1,1.26,0,3.43,3.43,0,0,0,4-1.73c.58-.91,1.26-1.76,1.89-2.63l.23.14L105,39.53c2.29-.92,3.83-4.33,3.64-7.92l-2.4,3.86-.28-.14a30.58,30.58,0,0,1,2.21-4.21,9,9,0,0,0,2.07-6.46c-.06-.54,0-1.1,0-1.63s-.26-1.25-.41-1.9c-.66.38-.34,2-1.63,1a3.38,3.38,0,0,0-4,.16c1,.29,2,.54,2.92.91.32.12.77.61.72.84s-.55.58-.85.85l-.55-1.09c-1.22,1.33-1.84,1.25-2.84-.24l-1.06.61-.35-.56c-.18.21-.53.44-.52.64.11,1.61-.49,3.36,1,4.7a1.43,1.43,0,0,1,.15,1.34,1.58,1.58,0,0,1-1.2.68c-1.11,0-2.38.59-3.3-.62-.08-.1-.38-.1-.55-.06-1.17.32-1.4-.38-1.48-1,.38.06.74.12,1.09.16s1-.11,1.2.11c.67.85,1.26.45,1.92.09s.65-1.12.54-1.83a10.11,10.11,0,0,1-.12-1.74,11.94,11.94,0,0,1,.83-4.35c.53-1.3,1.18-1.36,2.16-1.46l2.34-.23c-2.79-3-10.64-2.8-12.88-.82,1.16.26,2.33.49,3.47.81,1.32.37,1.59,1.2.89,2.4ZM66.83,67.52l.21-.18,3.45,5.31.33-.19-1.13-3.34.16-.08,2.07,3.55c.16-1.64.31-3.22.46-4.79l.42,0v8l.46.2.2-.73A51.53,51.53,0,0,1,71,96.73a8.21,8.21,0,0,0,1.22-1.5,30.56,30.56,0,0,0,2.51-6c1.2-5.6,2.15-11.27,3.07-16.93.2-1.21.29-2.22,1.79-2.39-.39-1.8-.73-3.47-1.11-5.12a2.09,2.09,0,0,0-.4-.66c-.26-.38-.68-.72-.77-1.13-.36-1.52-1-3-.32-4.64l-2.57-7.51c-3.51,1.57-6.82,2.9-10,4.49-3.35,1.69-5,4.89-6.37,8.17-2.28,5.34-3.87,11-7,15.94a3.47,3.47,0,0,0-.27.9c7.68-.87,14.54.3,19.72,6.7.43-1.52.87-2.88,1.18-4.27a11,11,0,0,0-1-8C69.34,72.4,68.1,70,66.83,67.52Zm77.82,16.74a2,2,0,0,0,0-.52,6.31,6.31,0,0,0-.33-.75,73.38,73.38,0,0,1-5.56-13.14A47.82,47.82,0,0,0,135.79,63a12.17,12.17,0,0,0-2.73-3.86c-3.34-2.78-7.55-4-11.46-5.84-.41,2.51-.8,4.87-1.17,7.12.33.3.89.6.85.8-.28,1.57.43,3.44-1.28,4.62-.15.11-.19.42-.23.64-.3,1.67-.58,3.35-.81,4.7.52.76,1.13,1.28,1.23,1.89a48.72,48.72,0,0,1,.44,5,68.84,68.84,0,0,0,2.93,16,6.46,6.46,0,0,0,.47.84c0-3.29.17-6.3-.06-9.28-.16-2.08-.19-4,.88-5.86a16.43,16.43,0,0,0,2.2-7.27c.09-1.16.12-2.32.2-3.8l.52,1.88c.58-1.75,1.06-3.24,1.55-4.73l-1.95,11,.3.12,2.81-3.66c-.77,1.81-1.76,3.48-2.56,5.23a10.36,10.36,0,0,0-1.12,3.62c-.14,2.34,0,4.69.11,7.43C132.09,84.57,138.15,83.75,144.65,84.26ZM72.72,101.08l-.52-.45c-2.34-1.85-4.67-3.72-7-5.56A15.78,15.78,0,0,0,58.87,92c-.65-.14-1.32-.17-2-.26a2.75,2.75,0,0,1,1.5-.31c1.5.1,3,.3,4.51.36a5.48,5.48,0,0,0,2.58-.27,4.14,4.14,0,0,0,.47-7.2c-4.37-3-9.27-3.4-14.27-2.89-.72,2.44-1.37,4.74-2.09,7-.47,1.48-1,2.94-1.54,4.39-1.27,3.34-.61,6.81-.64,10.22,0,.62.78,1.39,1.38,1.83,1.22.88,2.64,1.49,3.84,2.39A20.29,20.29,0,0,0,67.25,111c.84-.08,1.11-.36,1.08-1.22A9.33,9.33,0,0,1,72.72,101.08Zm71.41,24.33.47,0a22.3,22.3,0,0,0,.67-3.67,5.13,5.13,0,0,1,.47-2.4c3.79-7.57,5.18-15.35,1.61-23.45a31.1,31.1,0,0,1-1.16-3.41c-.57-1.9-1-3.82-1.67-5.69-.17-.48-.74-1.14-1.16-1.17a39,39,0,0,0-6,0,13.82,13.82,0,0,0-7.51,2.85,2.12,2.12,0,0,0-1,2.4,10.53,10.53,0,0,0,4.45,6.32,4.51,4.51,0,0,0,5.56-.28c.32-.24.68-.43,1.26-.79-2,3-3.74,5.76-5.54,8.49-.31.46-.94.79-1,1.27a10.21,10.21,0,0,0-.43,3.66,41.9,41.9,0,0,0,1.45,6.2c.32,1.07.61,1.95-.25,2.93a9,9,0,0,0-1,2.14c2.29-.42,4.35-.65,6.34.33A10.24,10.24,0,0,1,144.13,125.41ZM86.74,69.73l25,1.26c.36-2.15.69-4,1-6a2.73,2.73,0,0,0-.06-.8,7.94,7.94,0,0,1-.3-1.84,21.6,21.6,0,0,1,1-4c.72-2.49.61-5.21.82-7.84,0-.27-.08-.7-.26-.8-1.23-.69-2.49-1.31-3.74-2-1.86,5.32-7.14,9-12.29,8.25a15.12,15.12,0,0,1-8.58-4.58A67.41,67.41,0,0,1,85,46.23l-3.87,1.92c.83,2.49,1.64,5,2.49,7.47.24.71,0,1.78,1.24,1.88.11,0,.25.3.28.48.27,1.61,1.34,3.19.16,4.86-.07.1,0,.3,0,.45C85.78,65.36,86.24,67.44,86.74,69.73Zm55.33-23.1A13.19,13.19,0,0,0,154,56c1.36,0,2.86,0,3.62-1.37,1.29-2.29,2.46-4.66,3.56-7a6.84,6.84,0,0,0,.35-4.78c-.07-.28-.34-.5-.5-.72l-.31-1c-.58.49-1,1.11-1.42,1.14s-1-.47-1.61-.81l-.38,1.07c-.59-1.29.36-1.78,1.14-2.3a2.23,2.23,0,0,1,3,.38c.18-.71.33-1.27.53-2.07l-3.93.59c.3-.42.41-.77.6-.82,1-.29,2.06-.51,3.19-.77-.15-1.74-.32-3.63-2.21-4.68a7.29,7.29,0,0,0-5.06-.85c-1.82.36-5.24,3.3-6.55,5.64,2.12-.82,4.64-.47,5.95,1a8.65,8.65,0,0,1-1.55,0,8.23,8.23,0,0,1-1.29-.51,4.24,4.24,0,0,0-4.57.87,57.27,57.27,0,0,1-5,3.47,12,12,0,0,0-.76-1.11,5.54,5.54,0,0,0-.89-.92,1.17,1.17,0,0,0-2,.68,4.73,4.73,0,0,0,1.17,4.63C139.86,46.46,140.61,47.45,142.07,46.63ZM88,111.79l.12-.37a7.52,7.52,0,0,1,.85.18c1,.3,2,.64,3,1,1.32.41,2.51,0,2.72-.94.27-1.35-1-1.35-1.77-1.7-1-.44-2-.7-2.93-1.13a8.94,8.94,0,0,1-1.39-.94,35,35,0,0,1,5.57,1.84c.92.38,1.72,0,1.75-1a1.94,1.94,0,0,0-1.16-2.08c-1.4-.58-2.79-1.17-4.15-1.82a11.2,11.2,0,0,1-1.41-1,20.33,20.33,0,0,1,3.69,1.13l3.52,1.33c.62-1.59.46-2.47-.68-3.33a11.84,11.84,0,0,0-2.12-1.18A41.37,41.37,0,0,1,89,99.64c-1.46-.91-2.44-1.11-3.88-.09a19.67,19.67,0,0,0-5.61,5.81,7.42,7.42,0,0,1-.46.64l-.22-.13L80.43,103c-1.81-.48-3.52-.84-5.16-1.42a2.93,2.93,0,0,0-3,.51c-3.23,2.45-4.39,7.89-2.35,11.38a2.17,2.17,0,0,0,1.26,1.07,24.47,24.47,0,0,0,7.49-.21L78,112.52c.43.28.59.7.88,1a18.88,18.88,0,0,0,2.26,1.93c.41.3.85.32,1.21-.34.48-.9,2.21-1.14,3.19-.85a56,56,0,0,0,5.85,1.42,1.44,1.44,0,0,0,1.83-1.2c.11-1-.83-.94-1.45-1.17C90.48,112.8,89.22,112.29,88,111.79Zm79-7.93c1.61-.64,3.35-1.38,5.13-2a7.36,7.36,0,0,1,2.7-.58c1,0,1.17-.46,1.28-1.2.07-.44.18-.87.24-1.31.1-.64.19-1.29.27-1.94a2.53,2.53,0,0,1,.08-.63c.62-1.27.37-2-.94-2.53l-.72-.33a.76.76,0,0,1,.62-.16c.64.12,1.44.17,1.48-.61a1.85,1.85,0,0,0-1-1.41,8.57,8.57,0,0,0-2.5-.28c-.54,0-1.28.22-1.57-.05a1.25,1.25,0,0,0-1.69,0,11.69,11.69,0,0,0-2.57,1.93c-1.19,1.32-2.17,2.82-3.32,4.19a4.57,4.57,0,0,1-1.67,1.33c-3.77,1.53-7.57,3-11.35,4.44-.28.11-.77.32-.75.43a13.23,13.23,0,0,0,.67,4c.81,1.74,2.13,3.22,3.09,4.89.76,1.34.78,1.43,2.1.62,4-2.5,7.16-6.25,11.72-8.35Zm-32.56,21.52a2.85,2.85,0,0,1,.89,3.35c-.28.92-.53,1.86-.9,2.76-.69,1.68-1.48,3.32-2.19,5-.39.92-.73,2,.34,2.6s1.76-.39,2.21-1.19c1.5-2.67,2.91-5.38,4.36-8.07.11-.2.24-.38.35-.57a6.24,6.24,0,0,1-.28,2.1,23.42,23.42,0,0,1-4,7.19,4.78,4.78,0,0,0-.88,2,1.64,1.64,0,0,0,.57,1.43c.35.17,1.1-.13,1.48-.46a10.57,10.57,0,0,0,1.34-1.74l2.52-3.38.26.17c-.31.51-.59,1-.94,1.52-.8,1.14-1.69,2.22-2.42,3.4-.19.31.08.89.14,1.35.36-.18.86-.26,1.08-.55.72-1,1.34-2,2-3.07a11.73,11.73,0,0,1-1,2.3,3.94,3.94,0,0,0-.09,1.34c.46-.15,1.09-.15,1.34-.47a27.58,27.58,0,0,0,2.81-3.84c1-1.75,2.11-3.51,2-5.63a16,16,0,0,0-1.89-7.23,8.36,8.36,0,0,0-10.31-4.07,4.23,4.23,0,0,0-2,1.43,9.47,9.47,0,0,0-1.3,6.7,1.34,1.34,0,0,0,2,1.06c1-.37,1.29-1.25,1.53-2.17S134.07,126.58,134.41,125.38ZM25.22,63.05a7.11,7.11,0,0,0-1.72-.66,5.72,5.72,0,0,0-6.29,7.23,14.21,14.21,0,0,1,.39,6.75c-1,5.14-2.19,10.22-3.28,15.34A1.73,1.73,0,0,0,14.54,93c2.43,3.16,6,3,8.79,1.66.23-.11.39-.69.33-1-.56-3.35-1.17-6.7-1.79-10-.15-.79-.37-1.55-.58-2.43l-1.1.84c.69-1.35,1.28-2.43,1.79-3.55a2.26,2.26,0,0,0-.71-2.91c-.44-.36-.9-.71-1.35-1.07l1.86-1L21,73.14c.68-.21,1.37-.44,2.07-.63,1.11-.32,2.2-.77,3.38-.22.27.13.69-.06,1-.11-.07-.38,0-.87-.25-1.13a3.08,3.08,0,0,0-2.83-1.3c-.7.09-1.41.12-2.12.18,1.61-.6,3.23-1,5,.09,0-1.75-1.19-2.13-2.39-2.85l1.66.27.24-.34a7.44,7.44,0,0,0-1.41-1.49,4.2,4.2,0,0,0-3.6-.23c-.81.26-1.63.48-2.44.71a.9.9,0,0,1,.51-.56c3-1.72,3-1.72,6.22-.65.07,0,.19.05.22,0a7.17,7.17,0,0,0,1.21-1.45c.1-.2-.35-1-.53-1A6.36,6.36,0,0,0,25.22,63.05Zm31.29-1.91c-1.53,1.6-2.91,3.18-4.43,4.62a17.63,17.63,0,0,1-9.37,5c-2.21.36-3.46-.82-3.14-3,.12-.86.4-1.71.62-2.63a4.64,4.64,0,0,0-2.57,2.8c-.8,2.25-2.12,4.32-1.94,6.9a5.36,5.36,0,0,1-1.18,3.22c-.8,1.23-.91,2.92-1.31,4.39.14.07.2.14.27.14l4.88,0a11.74,11.74,0,0,0,2.3,0c1.4-.3,2.74-.91,4.15-1.1A4.47,4.47,0,0,0,48.87,78c.19-.66.92-1.31.82-1.86a4.93,4.93,0,0,1,1.1-3.55c1.52-2.47,3.2-4.82,4.77-7.25.76-1.19,1.42-2.44,2.15-3.71ZM38.39,103l1,2.31a24.17,24.17,0,0,0-3.21.55,8.59,8.59,0,0,0-2.66,1.27,1.56,1.56,0,0,0-.14,1.51.89.89,0,0,0,1.55.1c.06-.06.2-.06.34-.1-1.48,2.18-1.39,3,.33,3.5-.64,1.41-.45,1.94.53,2.34a7.6,7.6,0,0,0,1.15,2,1.47,1.47,0,0,0,1.43-.18c1.18-1.26,2.44-1.11,3.8-.47a4.46,4.46,0,0,0,4.24-.25c1.16-.66,2.3-1.35,3.57-2.11l-.6,1.59a23.1,23.1,0,0,0,11-2.1,29.43,29.43,0,0,1-9.64-5.1,1.21,1.21,0,0,0-.94-.08,4.76,4.76,0,0,1-5.13-1.27A14.19,14.19,0,0,0,38.39,103Zm69.76-52.36c-.65-1.12-1.22-2-1.64-2.89-.93-2.06-2.51-2.27-4-.5a14.18,14.18,0,0,1-1.26,1.19l-.17-.17.67-1.2c-2.7-1.17-5.51-2-7.44-4.26s-3.65-4.32-5.44-6.43c-.12,1.41-.24,3-.39,4.55-.18,1.87-.47,3.68-1.92,5.11a1.16,1.16,0,0,0,0,1.14c1.66,1.82,3.16,3.92,5.15,5.29,5.51,3.79,9.28,4.1,15-.32A11.15,11.15,0,0,0,108.15,50.68Zm58.68,28.88.15-.35a36.76,36.76,0,0,0-2.47-4c-.86-1.09-1.93-2-1.62-3.55,0-.13-.18-.31-.29-.46-1-1.3-1.91-2.65-3-3.89s-2-2.13-3-3.2c.23,1.16.7,2.13.94,3.15.29,1.24-.29,1.9-1.54,1.81a7.36,7.36,0,0,1-2.71-.55c-4.88-2.48-9.72-5.06-14.58-7.61l1.15-1.67-.23-.3-4.32.92.88,1.51c.89.2,1.66.16,2.1.52,3.53,2.83,7,5.74,10.5,8.64a2.62,2.62,0,0,1,.39.59l-3.59,1.38a11.94,11.94,0,0,0,3.33-.81,1.19,1.19,0,0,1,1.67.44c1.51,2,3,4,4.58,6a2.07,2.07,0,0,0,1.16.77c1.85.22,3.71.34,5.56.46C163.53,79.42,165.18,79.48,166.83,79.56Zm-25-32-.28.06a9.07,9.07,0,0,0,.11,1.18,13.93,13.93,0,0,1-1.5,10.54,1,1,0,0,0,.43,1.62c1.81,1,3.56,2.22,5.41,3.18,2.71,1.41,5.46,2.76,8.26,4,.79.34,2.34.47,2.65,0,.7-1-.33-1.92-1-2.67a7.74,7.74,0,0,1-2.15-3.91c-.06-.37-.14-.73-.21-1.09l-.26.33a10.24,10.24,0,0,1-2.46-1.13A30.08,30.08,0,0,1,143,50C142.61,49.18,142.25,48.36,141.87,47.54ZM14.92,95.12c-.19,2.68-.51,5-.48,7.37a7.79,7.79,0,0,0,3.13,6.57,2.45,2.45,0,0,0,2,.4c2.84-1.25,5-3.25,5.32-6.51a17.69,17.69,0,0,0-1.13-7.2A7.9,7.9,0,0,1,14.92,95.12ZM180.63,78.35l0,.4a8,8,0,0,0-1,.13c-1.24.27-2.49.52-3.7.88-.29.08-.47.54-.7.82.34.21.66.56,1,.61.72.09,1.47,0,2.21,0a18,18,0,0,1,2.65.15c.36.06.65.51,1,.79-.42.29-.81.76-1.26.83a5.82,5.82,0,0,1-1.76-.28,3.39,3.39,0,0,0,2.72,2.85,3.34,3.34,0,0,0,3.34-2,12,12,0,0,0-.53-8.62,11.09,11.09,0,0,1-.65-2c-.17-.81-.56-1.45-1.42-1.42a30.16,30.16,0,0,0-5,.46c-.79.16-1.89.63-1.61,1.93l5.51-.8.05.37a8.62,8.62,0,0,0-1.7.27c-1.48.53-2.95,1.1-4.36,1.77-.26.12-.27.79-.39,1.21a5,5,0,0,0,1.16,0c1-.22,2.06-.5,3.09-.76-1.14.56-2.34.87-3.43,1.41-.43.21-.61.93-.9,1.41a6.24,6.24,0,0,0,1.47.16C177.84,78.81,179.24,78.56,180.63,78.35ZM38.6,105,27.28,73.78l-2.72.27,10.89,31.57ZM179.14,91.93a33.48,33.48,0,0,0-.94,5.37c-.08,3.77,2,6.47,5,8.56,1.14.81,1.68.68,2.27-.62a8.51,8.51,0,0,0,1-3.51c-.1-3.14-.52-6.27-.84-9.58C183.31,94.29,181.48,94.2,179.14,91.93Zm-46.9,29.44.49-.26q-2.4-8.17-4.81-16.35l.12,0,3,6c.18-2.23.4-4.15.48-6.08.07-1.64.31-3.34-.57-4.88l-3.56-6.13-.91-1.55c-.25,2.1-.61,3.87-.64,5.64,0,1.42-1.2,2.91.48,4.34.67.57.58,2,.85,3.09s.6,2.1.89,3.15c.41,1.49.81,3,1.22,4.46.35,1.26.69,2.51,1.06,3.76s.8,2.6,1.24,3.88A5.16,5.16,0,0,0,132.24,121.37ZM149,79.56l.42,0c-1.12-1.41-2.26-2.8-3.37-4.22-.61-.79-1.18-1.63-1.74-2.45-.1-.15,0-.42-.15-.52-1.47-1.39-3-2.76-4.45-4.14l-.28.16c1.2,3.1,2.32,6.23,3.62,9.29.82,1.92,1.93,3.71,2.83,5.6a2.13,2.13,0,0,1,.18,1.7c-.79,1.19-.1,2.09.38,3.1.64-2.19,1.14-4.4,1.71-6.59A11.3,11.3,0,0,1,149,79.56ZM112.78,90.8c5,2.92,7.43,7.26,8.84,12.32l3.55-1.06c-.18-.54-.32-1.1-.55-1.63-2-4.69-4.46-9.06-9.43-11.27a1.2,1.2,0,0,0-1.07.06A12.42,12.42,0,0,0,112.78,90.8ZM66.32,128.35c2.4-1,2.39-1,2.9-3.23.09-.41.27-.81.35-1.23a4.34,4.34,0,0,0,0-1c-.09-1.14-.3-2.28-.28-3.41,0-1.73.22-3.45.34-5.25L66.05,114c-.22,1.27-.16,2.59-.71,3.58a5.39,5.39,0,0,0-.31,3.81C65.43,123.7,65.88,126,66.32,128.35Zm-8.14,27.31.35,0c0-.53.12-1.06.13-1.59,0-1.94,0-3.88.06-5.82.1-4.15.62-8.23,2.75-11.88,1.73-3,3.47-6,7.37-6.74a24.47,24.47,0,0,0,4.52-1.8c1-.43.79-1.41.87-2.21,0-.26-.22-.56-.35-.85-.34,1-.39,2.33-1,2.64a66.89,66.89,0,0,1-6.48,2.66l.09-1.13a10.1,10.1,0,0,0-1.12.66,19.44,19.44,0,0,0-7.57,13.53,97.06,97.06,0,0,0,0,10.79A8.42,8.42,0,0,0,58.18,155.66ZM111.65,19.94c-1.9-4.48-5.36-6.75-9.88-7.43-5.75-.85-10.51,1.24-14.63,5.11.49,1,1.17.8,1.8.42.87-.51,1.71-1.07,2.53-1.66,5.6-4,13-3.8,17.62,1.95a6.72,6.72,0,0,0,1.36,1.25A3.82,3.82,0,0,0,111.65,19.94Zm7.12,58.48.32-.09c-.19-1.22-.36-2.44-.6-3.65a1,1,0,0,0-.59-.71c-2.52-.41-5-.94-7.59-1.1-6.19-.39-12.39-.59-18.58-.9-3.4-.17-6.79-.71-10.19,0-2,.46-2.05.37-2.45,2.36-.1.49-.18,1-.27,1.48q-.48,3-1,5.9c.8-2.6,1.3-5.25,1.86-7.89.08-.39.38-1,.66-1,1.87-.29,3.81-.85,5.63-.6,10.27,1.39,20.69.59,31,2.06.87.12,1.24.36,1.35,1.18C118.43,76.45,118.61,77.44,118.77,78.42Zm5.49,19.63a20.85,20.85,0,0,0-7.16-9.46,17.14,17.14,0,0,0-20.16.7,26,26,0,0,0-7.45,10,2.44,2.44,0,0,0,.81-.82,30,30,0,0,1,5.89-7.64,16.36,16.36,0,0,1,14.29-4.13c1.66.3,3.28.84,4.91,1.27.06,0,.09.1.15.16l-.31.38C119.57,90.49,121.86,94.32,124.26,98.05Zm60.56-12.67a17.16,17.16,0,0,1-2.52,1.41c-2.07.69-2.09.64-2,2.87a11.41,11.41,0,0,0,.06,1.16,2.68,2.68,0,0,0,2.79,2.08,2.22,2.22,0,0,0,2.24-2.21C185.27,88.92,185,87.16,184.82,85.38ZM151,107.75c-.78,3.47-1.73,6.67.3,9.47,1-.88,2.08-1.81,3.13-2.78a.85.85,0,0,0,.12-.72A17.72,17.72,0,0,0,151,107.75ZM176,90.5c.59-2.49,1.19-5,1.78-7.54l-.4,0-1.68-1-2.87,8.54ZM65.33,132.55a15.69,15.69,0,0,0-4.54,7.11c-1.75,5.83-1.37,11.73-.55,17.64.2,1.45.63,2.87.95,4.3l.32-.07c0-.73-.07-1.46-.14-2.19-.33-4-.89-8-.95-12a20.8,20.8,0,0,1,2.27-10.56C63.48,135.3,64.44,134,65.33,132.55ZM17.38,54.73l2.7,7.33,2.46-.32-2.61-7.83Zm155.93,54.2h-.2A8.49,8.49,0,0,0,173,110c.13,4.44.21,8.89.42,13.34.16,3.25.42,6.48-.57,9.67-.52,1.69-.81,3.46-1.2,5.18A41.62,41.62,0,0,0,173.3,134a20.77,20.77,0,0,0,1-9.2c-.45-4.31-.6-8.65-.87-13C173.39,110.84,173.35,109.88,173.31,108.93ZM24.4,151a27.71,27.71,0,0,0,12.17,3,1.63,1.63,0,0,0,1.06-.52c1.09-1.16,2.15-2.35,3.16-3.58a3.05,3.05,0,0,0,.72-1.49c.43-4.83.81-9.67,1.19-14.5,0-.66,0-1.32,0-2h-.28c0,.34-.06.67-.08,1-.3,4-.54,8-.9,12-.18,2.05-.18,4.17-2,5.7a28.48,28.48,0,0,0-2.16,2.57,1.36,1.36,0,0,1-1.07.33c-3.68-.76-7.34-1.58-11-2.38Zm73-22.71-.58,0c0,.52-.08,1-.09,1.56,0,3-.09,6-.1,9.06,0,3.33-.05,6.66,0,10a19.49,19.49,0,0,0,.72,3.44Zm81,25.36c-6.24-1-11.93-3.67-17.78-5.84C161.73,150.19,174.79,154.43,178.38,153.67ZM118.7,125.86l-25.36.44A94.93,94.93,0,0,0,118.7,125.86ZM24.89,77.73c-.9,3-.9,7.36,0,9.44.59-1.29,1.18-2.55,1.73-3.82a1.21,1.21,0,0,0,0-.75C26.1,81,25.53,79.48,24.89,77.73Zm79.37,51.73-.37,0-.8,16.34C104.79,140.42,104.42,134.93,104.26,129.46Zm11.13,20.48-.23,0a.85.85,0,0,0-.06.31c.54,2.82,1.07,5.64,1.68,8.44a1.38,1.38,0,0,0,1,.72,22.58,22.58,0,0,0,9.42-.84,3.54,3.54,0,0,0,.77-.42l-10.6,1C116.66,155.87,116,152.9,115.39,149.94Zm68.4-92.64c.36-.23.78-.34.85-.57.38-1.25.71-2.53,1-3.82.06-.3-.23-.67-.36-1-.32.24-.83.43-.91.73-.43,1.52-.61,3.12-1.15,4.6-.44,1.21,0,2.83-1.52,3.82l2.29.13C182.12,59.69,184.39,58.42,183.79,57.3Zm-3.61,8.93L179,70.74c2.06-.07,2.06-.07,2.56-1.82.07-.26.14-.52.22-.78.46-1.54.46-1.54-1.17-1.91A3.35,3.35,0,0,0,180.18,66.23ZM66.78,94.86,70,97.69l-1-6-.35,0ZM42,95.91c-1.78-5.42-1.1-9.83,4.3-12.59A8.11,8.11,0,0,0,42,95.91Zm68.52,11.14a97.77,97.77,0,0,0-.5,14.2h.5Zm28.16-68.51a19.11,19.11,0,0,1,6.47-7.61,21.63,21.63,0,0,1,9.45-3.24C147.05,27.17,140.59,33.05,138.69,38.54ZM74.3,135.92l-.18-.46-8.49,3.14c.25-2.48.47-4.75.69-7l-.32-.06a3.26,3.26,0,0,0-.3.8c-.14,1.81-.26,3.62-.38,5.43-.07,1.16.2,1.4,1.34,1.05.92-.29,1.81-.67,2.72-1Zm1.49-1.63a11.7,11.7,0,0,0,3.49-6.89c-.83-.3-2.33.36-2.28-1.47,0-.08-.64-.17-1-.26-.07.29-.3.74-.19.86a1.57,1.57,0,0,1,.14,2.2,6.55,6.55,0,0,0-.45,1.12,2,2,0,0,0,1-.94c.72-1.33.87-1.39,2.52-.67C77.92,130.25,76.87,132.24,75.79,134.29Zm74.88.61.34,0c0-.44,0-.87,0-1.31.05-2.78.13-5.57.14-8.35,0-1.11.47-1.49,1.56-1.42,1.27.08,2.55,0,3.83,0-1.39-.26-2.79-.17-4.16-.29-1.19-.11-1.63.44-1.67,1.47-.11,2.36-.23,4.71-.27,7.07A27.2,27.2,0,0,0,150.67,134.9Zm-121-23.33h.53L29.4,101l-.58,0Zm91.91,28.51-9.29-4.17C112.94,137.27,118.57,139.88,121.54,140.08ZM62.78,154.66l.5.08,2.19-13.43-.34-.06Q63.95,148,62.78,154.66Zm33.88-51.94c.22.74.45,1.39.61,2s.51,1.06,1.22.88a1.08,1.08,0,0,0,.79-1.44C99.06,103.07,98.14,102.54,96.66,102.72Zm23.28,30.79h-8.3V134C114.42,134.08,117.2,134.27,119.94,133.51ZM70.5,90h-.45c-1.06,1-.78,4,.71,5.88C70.67,93.79,70.59,91.91,70.5,90Zm85.34,55.7.32-.5-8.83-5.65-.24.36ZM28.71,97.29C28,95.6,26.84,93.85,26.53,92s.2-4,.32-5.5C24.83,89.47,25.74,94.08,28.71,97.29Zm2.68,39.56q-1.12,4.92-2.26,9.84l.39.08C30.47,143.53,31.49,140.3,31.39,136.85ZM175.67,72.72c.42-.49.68-.82,1-1.11s.79-.86.2-1.35a7.39,7.39,0,0,0-1.34-.7,4.53,4.53,0,0,0-.52,1.51A5.45,5.45,0,0,0,175.67,72.72ZM59.79,124.81c-2.85-.58-5.54.14-8.23.85l0,.28ZM82.44,89.2h.24V78.39h-.24ZM71.21,122.45c2.23,1.49,4.8,1.82,7.33,2.27l.09-.33Zm95.38-38c-2.13-1.55-7.9-3.77-9.2-3.64Zm-121-54.9L54,27.77C51.6,27.44,46.33,28.53,45.56,29.56Zm77.42,103-3-5.05C119.73,129.5,121.52,132.18,123,132.55Zm55.47-43.26V84.66C177.89,86.12,176.61,87.55,178.45,89.29ZM115.8,77l-.43,0c-.17,2.56-.33,5.12-.5,7.69l.37,0Zm-42,72.24-6.2-1.53C68.79,148.83,72.11,149.63,73.83,149.24ZM98.44,5.2c-2.6.33-5.71,1.82-6.61,3Zm-12,16.35L86,21.47c-.25.32-.77.83-.7.94.59.9,1.3,1.72,2,2.57l.31-.14Zm32,50.66.06-.43-6.2-1-.06.43Zm-5.53,64.93-.44.11,1.7,6.72.35-.09Q113.67,140.52,112.85,137.14Zm-57.4-1.64.37-.05-.94-7.17-.33,0Zm-3-18.55-.19.37,6.34,1.46.1-.4Zm61.31-54.49-.08.42,5.73,1.35.08-.31Zm-29.27-1-.09-.37-5.75,1.23.09.39Zm31.46,45v-.27h-5.23v.27Zm7.87,22.4.13-.42a7.69,7.69,0,0,0-1.61-.66c-.22,0-.54.41-.81.63.24.19.47.49.73.52A9.1,9.1,0,0,0,123.85,128.83Zm-9.48-69.52-.09.4,5.43,1.22.07-.31ZM9.72,45.09l.08.32,6-1.74-.08-.27ZM83.2,58l-.08-.32L77.69,59l.08.37ZM111,25.43l.22.13c.52-.38,1.07-.73,1.57-1.14.15-.13.18-.42.27-.64-.27-.05-.69-.22-.78-.12C111.8,24.21,111.41,24.83,111,25.43Zm1.78.47-.62-.08v2.91l.38,0ZM70.43,124.2l.71,2C72.05,125.14,71.58,124.57,70.43,124.2Zm55.73-11.91a2,2,0,0,0-2.87.83ZM30.85,74.76l0,.4,3.93-.71-.08-.39Zm49,25.17.27-.28-3.09-2.6-.24.28Zm47.9,18.57-.11-.43-3,1,.11.35Zm-5-7.3.14.48,2.59-1-.13-.35Zm2,5.93.15.54,2.41-.79-.12-.41Zm-.46-1.39.21.45,2.57-1-.14-.39Z"/><path d="M28.29,41.87c-1.86.75-3.07,2.38-4.81,3.14l-.36-.52c.51-.39,1-.76,1.52-1.18a8.22,8.22,0,0,0,1.64-1.52C27.09,40.58,27.21,40.53,28.29,41.87Z"/><path d="M71.05,70.16l-1-4.57.31-.07,1,4.58Z"/><path d="M55.65,104.22l3.89,1.88-.18.38-3.94-1.87Z"/><path d="M95.53,22.05a7.42,7.42,0,0,1,1,.88.78.78,0,0,1-.09.84l-.56-.72a5.79,5.79,0,0,1-1.82.85c-.41,0-.85-.49-1.46-.89l-.48.62-1.08-.31a4.59,4.59,0,0,1,4.48-1.23Z"/><path d="M104.78,33.76a4.34,4.34,0,0,1-3.73.16c-1.46-.64-3.38-.17-5.09-.26a13.13,13.13,0,0,1-2.21-.45s-.08-.37,0-.39a.88.88,0,0,1,.51-.09c.9.08,1.8.19,2.7.28,1.62.18,3.24.38,4.87.52a8.53,8.53,0,0,0,1.41-.14l1.57-.13Z"/><path d="M97.93,36.2h2.56c-.15.32-.28.75-.37.74-.75,0-1.5-.18-2.25-.29Z"/><path d="M152.86,41.55l-1-.8c-.53.5-.92,1.16-1.31,1.15-.56,0-1.12-.48-1.76-.79l-1.27.11-.05-.4c1.13-.73,2.24-1.74,3.71-1C151.82,40.1,152.88,40.33,152.86,41.55Z"/><path d="M151.25,49.1h8a1.73,1.73,0,0,1-2,1c-1.19-.21-2.44,0-3.64-.16a13.15,13.15,0,0,1-2.4-.71Z"/><path d="M138.38,41.34c.25-.11.79-.45.85-.38A10.26,10.26,0,0,1,140.69,43c.16.3-.1.82-.18,1.26l-.6-.57c0-.66.18-1.28,0-1.64S139,41.63,138.38,41.34Z"/><path d="M156.31,47.23l1.8-1.11C158.34,47.08,158,47.3,156.31,47.23Z"/><path d="M37.83,51.39h7.88a2.64,2.64,0,0,1-2.27.89,32.07,32.07,0,0,0-4.25.17,4.2,4.2,0,0,1-1.46-.59Z"/><path d="M48.65,43.48l-1,.41-.19-.69c-2.18.11-2.4.09-2.53-.34l-1,.8-.2-.17.87-1.24-.85.06A4.39,4.39,0,0,1,48.65,43.48Z"/><path d="M49.44,40.85c-1.8-1.21-3.41-.41-5.07.24-.44.17-1-.08-1.55-.13a5.85,5.85,0,0,1,1.34-1C46,39.36,47.84,39.17,49.44,40.85Z"/><path d="M40.36,49,43,48.69c-1.86,1.49-4.2,1.23-4.32-.21l1.66.88Z"/><path d="M56.69,43c-1.52.57-1.5,1.5-.48,2.73l-1.37-.42C54.85,43.65,55.26,43.05,56.69,43Z"/><path d="M143,133.76l-1.92,4.8-.51-.21c.65-1.57,1.31-3.14,2-4.72Z"/></svg>