<svg id="Layer_1" data-name="Layer 1" xmlns="http://www.w3.org/2000/svg" viewBox="0 0 133 167"><path d="M85.4,93.79c-.33-2.19-.69-4.39-1-6.59-.64-4.56-1.4-9.11-1-13.74,0-.21,0-.54.17-.62,1.25-.78.86-2.09,1.08-3.2a.29.29,0,0,0-.06-.24c-.92-.64-.45-1.49-.31-2.26.63-3.32,1.28-6.64,1.93-10,2.23.88,4.35,1.88,6.58,2.57,3.91,1.23,6.3,4,8.2,7.43a49.4,49.4,0,0,1,3.84,8.9c1.49,4.59,3.27,9.08,5,13.59a24.89,24.89,0,0,0,1.72,3.11c-1.25.73-.78,1.67-.25,2.73,2.1,4.25,4.2,8.51,6.19,12.81a12.69,12.69,0,0,1,1.37,7.58,12.44,12.44,0,0,1-.82,2.73,35.93,35.93,0,0,1-4.59,7.85,1.55,1.55,0,0,0-.29,1,5.32,5.32,0,0,1-2.61,5.38,43.65,43.65,0,0,1-4.33,2.73,15.29,15.29,0,0,0-4.22,3.24,5.5,5.5,0,0,0-1.57,3.5,13.68,13.68,0,0,1-.59,3.32,5.42,5.42,0,0,1-1.5,2.27,28.56,28.56,0,0,1-3.75,2.47,1,1,0,0,0-.63,1c.24,3.18.45,6.36.67,9.53,0,.26,0,.52,0,.87H29.21c0-1.9-.09-3.77,0-5.64.3-5.14.7-10.28,1-15.42a1.68,1.68,0,0,1,1-1.56c1.74-1,3.39-2.1,5-3.24a2,2,0,0,0,.77-1.28c.31-2.41.51-4.82.75-7.24l-.25,0c-.19.87-.37,1.73-.56,2.6-.29,1.33-.51,2.67-.89,4a3.2,3.2,0,0,1-1,1.61c-1.4,1-2.89,1.78-4.56,2.79.06-.52.08-.76.12-1,1-5.15,2.07-10.27,2.87-15.44a22.17,22.17,0,0,0-.19-6c-.55-4.33-1.26-8.64-1.9-13,0-.17-.08-.33-.15-.64-.18.27-.3.44-.41.62-.84,1.42-1.63,2.87-2.53,4.25a6,6,0,0,0-.74,3.5,9.2,9.2,0,0,1-2.35,5.83c-.09-.92-.17-1.76-.26-2.6s-.18-1.66-.27-2.49l-.29,0q.7,12.56,1.41,25.12c.46,8.38.9,16.75,1.36,25.18H25.84c-1-18-2-35.93-3-54l-2.23.18c1,18,2,35.86,3,53.82H22.16Q21,142.12,19.89,122.39c-1.51.54-2.93.93-4.26,1.54-3.75,1.71-7.38,0-8.29-4A15.65,15.65,0,0,0,6,116.27a9.45,9.45,0,0,1,.66-10.19,41.37,41.37,0,0,1,2.73-3.59c2.2-2.56,3-5.68,3.76-8.85a1.06,1.06,0,0,0-.35-.77A12,12,0,0,0,11.5,92C13.27,88.25,15,84.5,16.8,80.7c.07.8.15,1.6.21,2.41.11,1.73.2,3.47.35,5.2,0,.34-.31,1,.41,1A2,2,0,0,0,18,88.23q-.3-5.46-.66-10.92c-.28-4.22-.22-8.5-1-12.63a80.45,80.45,0,0,1-.74-10.59c-.19-3.55-.13-7.12-.14-10.68,0-1.68,0-3.37.15-5a4.71,4.71,0,0,1,.69-2.1,1.92,1.92,0,0,1,3.44.2,5.85,5.85,0,0,1,.61,2.23c.31,4.48.54,9,.81,13.44.19,3,.44,6.07.59,9.1.13,2.73.1,5.48.24,8.21.31,5.87.69,11.73,1,17.6,0,.29.06.57.09.86l.28.1c.12-.28.35-.57.34-.85,0-1.85-.14-3.71-.24-5.56q-.32-5.8-.65-11.62c-.1-1.82-.24-3.64-.31-5.46A1.87,1.87,0,0,1,23,63.43a8.22,8.22,0,0,1,3.5-2.75c2.5-1,5-2,7.6-3.08,0,.41.09.69.12,1,.3,3.11.61,6.22.87,9.33a2.75,2.75,0,0,1-.32,1.33,5.21,5.21,0,0,0,.52,3.23,2.24,2.24,0,0,1,.53,1.08,53.22,53.22,0,0,1-.79,16c-.71,4.13-1.66,8.22-2.49,12.33-.17.85-.22,1.71-.33,2.57l.23.07c.32-.82.67-1.64,1-2.47a85,85,0,0,0,4-18.72,5.66,5.66,0,0,1,1.38-3.49,1.3,1.3,0,0,0,.13-1c-.23-1.6-.5-3.2-.75-4.8-.07-.45-.08-.91-.12-1.45l7.13-1c.13,1.63.21,3.18.4,4.72.3,2.44.33,2.43,2.75,2.43H71.67c1.3,0,1.34,0,1.49-1.32.2-1.72.34-3.45.51-5.18a5.61,5.61,0,0,1,.14-.69L81,72.62c-.22,1.45-.43,2.84-.65,4.24a3.84,3.84,0,0,1-.11.59c-.37,1.22-.32,2.15,1.17,2.64.44.15.82,1,.94,1.52.51,2.56.87,5.14,1.4,7.69.32,1.54.85,3,1.28,4.56Zm13.33,47.14a6.47,6.47,0,0,1-2.8-3.41,1.74,1.74,0,0,1,.69-2.35c2.4-1.72,4.78-3.47,7.24-5.09,1.52-1,3.17-1.8,4.76-2.68s2-1.91,1.35-3.61a5.84,5.84,0,0,0-3.26-3.42,4.75,4.75,0,0,0-5.46,1.11c-.51.55-1.07,1.06-1.56,1.63a1,1,0,0,1-1.36.3,9.59,9.59,0,0,0-5.59-.88c-3.58.79-7.14,1.68-10.69,2.6-1,.24-1.14,1.08-.42,1.79a3.24,3.24,0,0,0,3.69.72c1.08-.41,2.12-.93,3.2-1.34.74-.28,1.51-.45,2.27-.67l.18.22a14.84,14.84,0,0,1-.84,1.75,11.61,11.61,0,0,1-6.7,4.78c-2,.59-4,1.35-6,2.12a1.55,1.55,0,0,0-1,2c.35.83,1.09.81,1.78.66,2.73-.62,5.46-1.26,8.18-1.95,1-.24,1.86-.65,2.8-.93.2-.06.46.08.69.13a2.43,2.43,0,0,1-.33.64,1.92,1.92,0,0,1-.67.38c-1.57.59-3.12,1.26-4.73,1.7-2,.54-4,.87-6,1.3-1,.21-1.46.71-1.38,1.39.1.92.82,1.09,1.53,1a44.88,44.88,0,0,0,6-.53,57.58,57.58,0,0,0,5.8-1.75,13.1,13.1,0,0,1,1.39-.26A2.4,2.4,0,0,1,90,139.7,26.29,26.29,0,0,1,81.79,142c-.52.06-1.19.24-1.06.88a1.47,1.47,0,0,0,1,.93,10.4,10.4,0,0,0,3.69,0c2.22-.6,4.35-1.53,6.52-2.31.58-.21,1.17-.38,1.75-.57l.21.28a2.86,2.86,0,0,1-.53.73,5.94,5.94,0,0,1-1.13.63l-4.47,2,.09.22C91.92,144.76,95.4,143.19,98.73,140.93ZM62.11,119c2.67.39,5.28.92,7.92,1.11s5.27,0,7.91,0c-7.63-.94-15.22-2-22.39-5.45.13,2.58.19,5,.4,7.37.61,7.09,1.3,14.17,1.89,21.26a5.46,5.46,0,0,0,1.76,3.55,16.34,16.34,0,0,0,6.74,3.8,43,43,0,0,0,20.15,1.5c1.5-.23,3-.61,4.45-.92a10.38,10.38,0,0,0-2.17.13,57.23,57.23,0,0,1-13.34,0,32.63,32.63,0,0,1-11-3.08,3.65,3.65,0,0,1-2.3-3.36c-.42-5.43-1-10.84-1.56-16.25a12.52,12.52,0,0,0-.8-3,19,19,0,0,1-1.54-6.37c0-.47.25-1.29.53-1.36a4.61,4.61,0,0,1,1.79.26c-1.62,1.15-1.64,1.15-1.18,3A28.21,28.21,0,0,0,60.51,125a43.42,43.42,0,0,0,14.94,18.67,6.84,6.84,0,0,0,1.8,1,1.65,1.65,0,0,0,1.29-.28c.13-.09,0-.79-.22-1.12a3.6,3.6,0,0,0-.95-.87,36.6,36.6,0,0,1-6.65-6.21A40.66,40.66,0,0,1,62.11,119Zm20.59-6.44c0-2.28,0-4.33,0-6.38a13.16,13.16,0,0,0-4.08-9.64,1.13,1.13,0,0,0-.94-.24,10,10,0,0,1-5,.18,1,1,0,0,0-.82.33,22.85,22.85,0,0,0-1.84,2.93,7.66,7.66,0,0,0-.93,5.29,66.74,66.74,0,0,0,2.3,6.54,1,1,0,0,0,.66.52C75.57,112.27,79.07,112.41,82.7,112.56Zm-63-13.34V99l.63-.11c1.78-.23,3.56-.44,5.33-.68.75-.1,1.34-.44,1.38-1.3a1.6,1.6,0,0,0-1.34-1.59c-.71-.15-1.43-.18-2.15-.27L19,94.5v-.29a6.17,6.17,0,0,1,.84-.15c1.62,0,3.24-.07,4.86-.13a3.15,3.15,0,0,0,1.35-.22,1.48,1.48,0,0,0,.69-1,1.25,1.25,0,0,0-.54-1,2.87,2.87,0,0,0-1.37-.49c-2.44-.22-4.89-.44-7.35-.54A2.42,2.42,0,0,0,14.93,93c-.21,1.29-.48,2.56-.63,3.85a11.6,11.6,0,0,0,.79,6.55,4.76,4.76,0,0,0,3.52,2.81A12.14,12.14,0,0,0,26.09,105a1,1,0,0,0,.48-.47,1.42,1.42,0,0,0,.05-1,1,1,0,0,0-.8-.33,10.81,10.81,0,0,0-1.38.16,8.8,8.8,0,0,1-4.26-.06c.35-.1.52-.17.7-.21,1.69-.38,3.39-.71,5.07-1.16a1.39,1.39,0,0,0,1.16-1.74c-.14-.7-.67-1-1.73-.89-1.24.08-2.49.15-3.73.15A15.74,15.74,0,0,1,19.74,99.22ZM59.27,99,59,98.76c-2.69,1.36-5.22,2.88-6.22,6a.46.46,0,0,1-.12.23c-1.31.89-1,2.25-1.1,3.54a4.06,4.06,0,0,0,2.37,4.1,34.08,34.08,0,0,0,6.24,2.55,68.41,68.41,0,0,0,21.75,2.13,56.1,56.1,0,0,0,16.57-3.11,11.19,11.19,0,0,0,4.43-2.65,5.69,5.69,0,0,0,1.39-2.24c.35-1.45.6-3-1-4-.18-.11-.22-.44-.3-.68A6.32,6.32,0,0,0,99.9,101a2.33,2.33,0,0,0,.42,1.45c2.2,2.07,2.11,4.34-.31,6.13a8.19,8.19,0,0,1-.72.48,23.09,23.09,0,0,1-7.75,2.7,69.67,69.67,0,0,1-28.86-.62,18.74,18.74,0,0,1-6.74-2.63,3.66,3.66,0,0,1-.67-5.83c.68-.73,1.57-1.27,2.32-2C58.18,100.21,58.71,99.59,59.27,99Zm54.54,7-.36-.39c-2.25-2.33-5.49-1.47-6.37,1.05-.75,2.12-1.53,4.24-2.15,6.39-.53,1.82-.86,3.7-1.3,5.7a7.79,7.79,0,0,1,6.77,2.59,17.59,17.59,0,0,0,3.39-7.63,4.39,4.39,0,0,0-3.66-5.38l-.75-.18C110.09,107,110.21,107,113.81,106ZM103.33,90.57a3.13,3.13,0,0,1,.46,0c1.82.37,1.91.32,2.43-1.44,0,0,0-.06,0-.08.28-.61,0-.91-.57-1.08a9.05,9.05,0,0,1-2-.62,26.68,26.68,0,0,0-11.55-3c-1.71-.1-2.29.41-2.93,2-.09.21-.18.43-.28.64a1.51,1.51,0,0,0,.66,2.31c.46.29,1,.46,1.47.71a2.27,2.27,0,0,1,.83.57,4.09,4.09,0,0,0,3.19,1.5c1.21.14,2.43.35,3.4-.87.32-.39,1.21-.43,1.84-.42.17,0,.38.74.49,1.16a6.62,6.62,0,0,0,2,3.55,11.46,11.46,0,0,0,1.77,1l.26-.25A6.5,6.5,0,0,1,103.33,90.57Zm-90.45,9.71c-.44.66-.94,1.32-1.37,2a12.26,12.26,0,0,0-2.1,4.81A11.47,11.47,0,0,0,13.05,117a7.65,7.65,0,0,0,2.33,1.44,1.7,1.7,0,0,0,2.4-1.16,3.7,3.7,0,0,0,.27-1.26c0-2.14,0-4.27-.12-6.41a1.31,1.31,0,0,0-.54-.86,7.83,7.83,0,0,1-3.32-4.2C13.61,103.16,13.28,101.73,12.88,100.28Zm84.88,8.41a1.35,1.35,0,0,0,1-1.4c0-1.27.16-2.54.24-3.81a29.68,29.68,0,0,0,.31-5.22,29.52,29.52,0,0,0-1.32-5l-5.3-1a.81.81,0,0,0-.61.11c-.6.8-1.16,1.62-1.76,2.47a3.27,3.27,0,0,1,1.47,3.28l1.26.32c-.1.48-.17.94-.29,1.38-.6,2.21-1.15,4.43-1.83,6.6a3.06,3.06,0,0,0,.51,3c.24-.86.49-1.66.69-2.47.65-2.6,1.28-5.22,2-7.82.06-.24.37-.62.53-.6,1.14.13,2.26.35,3.51.56C98,102.34,97.86,105.51,97.76,108.69Zm-76-18.89c-.51-8.87-1-17.61-1.54-26.41-.57.09-1,.18-1.42.24-.68.09-1,.39-.9,1.15.12,1,.14,2,.2,3q.54,9.14,1.09,18.28c.08,1.18.18,2.35.27,3.57ZM76.3,91.5s0-.12.06-.15c.46-.27,1-.43.9-1.18-.1-.57-.1-1.15-.2-1.72a.65.65,0,0,0-.48-.29c-1.24,0-2.48.07-3.71.15a.79.79,0,0,0-.5.4,3,3,0,0,0,.7,2.86c-1.35.35-1.39.41-1.31,1.85a6,6,0,0,1,0,1,1.09,1.09,0,0,0,1,1.22,8.49,8.49,0,0,0,4.36-.1,1.42,1.42,0,0,0,1.24-1.71C78.23,91.64,78.29,91.63,76.3,91.5Zm6.78,10.29c.76-1.36,1.44-2.74,2.26-4a2.08,2.08,0,0,1,2.88-1,.73.73,0,0,1,.59.88c0,.62.07,1.24.1,1.86a1.47,1.47,0,0,1-.1.4l-1.54,5.59c-.17.59.12.83.67,1s1,.1,1.06-.6a2.8,2.8,0,0,1,.12-.5c.75-2.29.4-4.86,1.83-7a1.31,1.31,0,0,0,.12-.5c.22-1.32-.62-1.93-1.61-2.48A3.89,3.89,0,0,0,84,96.59c-.4.6-.65,1.3-1.08,1.88A2.36,2.36,0,0,0,83.08,101.79ZM30.93,97.9c.59-5.33-1.93-23.7-3.46-26,.33,3.14,1.11,6.2,1,9.34l-.26.08L27,80.07l-.19.06Q28.89,89,30.93,97.9ZM17.33,62.56c.91.09,1.07-.33,1.06-1Q18.2,49.77,18,38c0-.41-.1-.83-.15-1.32-.94.33-1,1-1,1.71.07,6.63.12,13.25.21,19.87C17.09,59.71,17.24,61.14,17.33,62.56Zm50.83,40.93a10.07,10.07,0,0,1,.16-1.1c.47-1.77-.62-2.84-1.78-3.82a2.12,2.12,0,0,0-2.28-.24,19,19,0,0,1-3.07.9,2.29,2.29,0,0,0-2.09,2.06,8.47,8.47,0,0,0,.22,2.65c.41,1.68,1,3.33,1.45,5,.27.9.27.9,1.35.95-.3-1.16-.63-2.29-.9-3.44s-.54-2.55-.75-3.83c-.09-.49,0-1,.63-1.13,1.34-.36,2.66-.78,4-1.16,1-.28,1.36-.1,1.83.8C67.31,101.85,67.68,102.58,68.16,103.49Zm22.67,7.8c-.22-.88-.35-1.58-.57-2.25a3.08,3.08,0,0,0-5.6-.61,6.76,6.76,0,0,0-.75,1.26c-.27.75-.41,1.55-.61,2.33l.27.23ZM76.11,84.92a236.72,236.72,0,0,0-32.51,0A323.41,323.41,0,0,0,76.11,84.92ZM59,94.45c.35,1.29.63,2.43,1,3.55a.82.82,0,0,0,.71.37c1.14-.31,2.26-.68,3.36-1.08a.69.69,0,0,0,.35-.57c-.32-1.18-.7-2.36-1.09-3.64ZM93.78,69.79c-1.65,3.67-2.77,11.13-2,13.65a11.29,11.29,0,0,0,1.42,0,.86.86,0,0,0,.63-.4c.6-1.74,1.15-3.49,1.71-5.24l-.2-.08c-.69,1-.91,2.37-2.28,3.11C92.47,77,93.33,73.39,93.78,69.79Zm-41,53.63c-5.82-.48-11.59-1.53-17.46-1.48C41,124.07,46.84,123.88,52.75,123.42ZM23.66,89.91l3.94.34a1.41,1.41,0,0,0-1-1.8A2.67,2.67,0,0,0,23.66,89.91Z"/><path d="M47.44,28.74a7.06,7.06,0,0,0-.25-.9,18.54,18.54,0,0,1-.7-11.47c.37-1.67.85-3.31,1.3-5a4.48,4.48,0,0,1,2.12-2.54,20.38,20.38,0,0,1,7-2.6,4.85,4.85,0,0,0,1.6-.7,2.62,2.62,0,0,1,2.7,0,2.89,2.89,0,0,0,1.07.49A19.31,19.31,0,0,1,69.87,9a5.86,5.86,0,0,1,2.46,3.64c.46,2,1.12,4,1.56,6a17.28,17.28,0,0,1-.39,7.73,17.41,17.41,0,0,1-.83,2.22l.19.09,1.92-2.37a1.29,1.29,0,0,1,.81,1.42A19.84,19.84,0,0,1,75,31.38a19,19,0,0,1-1.21,3.14,1.94,1.94,0,0,1-1.77,1.34.6.6,0,0,0-.41.41c-.38,2.76-1.3,5.47-1,8.32.18,1.43.32,2.87.54,4.3a1.2,1.2,0,0,0,.54.78,4.88,4.88,0,0,1,1.68,7.22,11.91,11.91,0,0,1-7.14,4.79,25,25,0,0,1-16.47-1.34C46.31,58.81,45,55.73,45.93,52a2,2,0,0,1,1.64-1.5c1.5-.33,1.67-1.39,1.82-2.63a32.25,32.25,0,0,0-.78-10.68c-.09-.39-.13-.79-.2-1.26-1.46.06-2.06-1-2.52-2.09a12.17,12.17,0,0,1-1.23-6.47c.17-1.13.83-1.47,1.79-1l-.8.35,1.64,2ZM48.55,25v1a78.47,78.47,0,0,0,1.28,12.33,5.94,5.94,0,0,0,2.43,4c1.07.79,2.14,1.59,3.18,2.42a7.29,7.29,0,0,0,9.32-.31c1.12-1,2.14-2.2,3.19-3.32a7.07,7.07,0,0,0,1.78-4.23,33.77,33.77,0,0,1,.87-5A20.51,20.51,0,0,0,71,25a.92.92,0,0,0-.51-.64c-2.33-.76-4.68-1.47-7-2.21a12.62,12.62,0,0,0-10.56.9C51.6,23.81,50.14,24.3,48.55,25ZM50.6,42.77l-.23.1c0,1.14,0,2.29,0,3.43a13,13,0,0,1-1.16,5.38,2.67,2.67,0,0,0,.11,1.88,4.64,4.64,0,0,0,1.24,1.65A13.86,13.86,0,0,0,65.18,58a9.62,9.62,0,0,0,4.18-2.72,1.78,1.78,0,0,0-.81-3.09,8.82,8.82,0,0,0-2.55-.4,15.57,15.57,0,0,1-12.24-5.54C52.74,45.07,51.65,43.93,50.6,42.77ZM71.85,22.64c.33-.23.74-.38.92-.68s-.2-.59-.41-.83a8.24,8.24,0,0,0-1-.92c-3.1-2.47-6.48-4.43-10.48-4.85-5.71-.61-10,2.09-13.63,6.18a.93.93,0,0,0-.07.89,1.09,1.09,0,0,0,1,.25,18.85,18.85,0,0,0,2-1.43c1.37-1,2.67-2.13,4.11-3A10.12,10.12,0,0,1,61,16.85a12.92,12.92,0,0,1,5.57,2.26C68,20,69.21,21,70.53,22A10.08,10.08,0,0,0,71.85,22.64ZM45.92,29c-.35,2.16,1,5.59,2.25,5.64a3.36,3.36,0,0,0-.82-2.37A1.3,1.3,0,0,1,47,31.15C47.34,30.07,46.79,29.49,45.92,29ZM72,34.59c1.27-.32,2.61-4.09,2-5.53-.92.57-.86.57-.83,1.63a2.46,2.46,0,0,1-.44,1.59A3.57,3.57,0,0,0,72,34.59Z"/><path d="M81.9,67.44l-7.28-1.13c.36-1.76.74-3.44,1-5.14.36-2,.68-4,.93-6,.13-1,.26-2.12-.83-2.85l1-.26a4,4,0,0,0,1.32.67,12.6,12.6,0,0,1,4.23,1.47l2,.91C83.49,59.21,82.7,63.29,81.9,67.44Z"/><path d="M43.23,52.52c.31,4.56.63,9.16,1,13.87l-6.87,1C37.16,66,37,64.76,36.9,63.5c-.16-2.4-.27-4.8-.43-7.19a.93.93,0,0,1,.7-1.07C39.24,54.35,41.28,53.4,43.23,52.52Z"/><path d="M45.09,67l.55,3.8-8.76,1.33c-.14-1.2-.28-2.31-.38-3.43,0-.15.19-.46.33-.48C39.53,67.79,42.24,67.4,45.09,67Z"/><path d="M82.11,72.08l-5.71-.86c-.83-.13-1.65-.29-2.48-.39-.43-.06-.62-.24-.55-.68.17-1,.33-2.05.51-3.16l2.35.32c1.86.28,3.71.59,5.58.83.59.08.81.29.72.88C82.37,70,82.26,71,82.11,72.08Z"/><path d="M53.09,107.28c1.4,2.34,3.63,3.35,6,4.14A56.14,56.14,0,0,0,72.43,114a65.22,65.22,0,0,0,20.71-1.32,43.65,43.65,0,0,0,5.44-1.76,8.8,8.8,0,0,0,4.51-3.68,3,3,0,0,1-.43,3A7.3,7.3,0,0,1,98.94,113a67.79,67.79,0,0,1-8.22,2.41,66.06,66.06,0,0,1-20.58.47,48.23,48.23,0,0,1-10.45-2.06,31,31,0,0,1-4.9-2.15A3.35,3.35,0,0,1,53.09,107.28Z"/><path d="M69.62,26.51c-.35-.17-.58-.25-.79-.37-1.87-1.07-5-.51-6,1.37a7.06,7.06,0,0,0-.33,6c0,.05.15.07.28.14a3.61,3.61,0,0,0,.22-.44,3.09,3.09,0,0,0,.09-.52c.86,1,.65,1.89-.45,2.26-.49.16-1,.41-1.46.53a4,4,0,0,1-1.6.13,11.34,11.34,0,0,1-2.23-.84.86.86,0,0,1-.45-1.22,23.49,23.49,0,0,0,3.19.48c.95,0,1.37-.77,1.23-1.8A13.6,13.6,0,0,1,61,29.51a28.09,28.09,0,0,1,.61-4.08,1.24,1.24,0,0,1,.8-.79A38.2,38.2,0,0,1,67.07,24C68.48,23.91,69.4,24.85,69.62,26.51Z"/><path d="M50.49,26.29a2.13,2.13,0,0,1,2-2.24,31.61,31.61,0,0,1,5.12.66c.29.06.45.85.66,1.31-.32.14-.66.42-1,.39a10.1,10.1,0,0,1-2.1-.46c-1.46-.48-2.87-.7-4.21.29a.72.72,0,0,1-.32.11S50.54,26.31,50.49,26.29Z"/><path d="M60.24,38.87l-5.07-1a2.81,2.81,0,0,1-.59-.12c-.2-.1-.52-.29-.51-.4a1.65,1.65,0,0,1,.41-.77c.06-.07.38.06.55.16.35.18.67.53,1,.58a26.68,26.68,0,0,0,7.93,0c.38-.06.72-.37,1.11-.46a2.86,2.86,0,0,1,.87,0c-.15.27-.25.7-.46.76-1.12.35-2.27.64-3.42.88a12,12,0,0,1-1.81.14Z"/><path d="M56.05,27.72c-.92,1.36-2.08,1.34-2.83-.1a10.57,10.57,0,0,1-1,.61,9.79,9.79,0,0,1-1.17.36,4,4,0,0,1,3.79-2.19,2.54,2.54,0,0,1,2.45,1.9Z"/><path d="M63,28A2.54,2.54,0,0,1,65.6,26.4a4.35,4.35,0,0,1,3.55,2c-1,.46-1.49-.44-2.18-.65-1.08,1.31-2.23,1.3-2.81-.07Z"/><path d="M58.08,40.24h4.34C61.51,41.42,58.87,41.43,58.08,40.24Z"/><path d="M67.22,39.28V35.53c.43-.08.7.25.9.69A2.85,2.85,0,0,1,67.22,39.28Z"/></svg>